<svg width="45" height="45" viewBox="0 0 45 45" fill="none" xmlns="http://www.w3.org/2000/svg">
<g clip-path="url(#clip0_35_1983)">
<path d="M40.7716 6.3877V39.0938C40.7658 39.1642 40.7331 39.2296 40.6802 39.2765C40.6582 39.7055 40.4779 40.111 40.1741 40.4148C39.8704 40.7185 39.4648 40.8989 39.0358 40.9209H29.4432V26.8518H33.9198C34.1938 26.8518 34.1938 26.8518 34.2852 26.5778L34.5593 24.2938C34.6506 23.3802 34.742 22.4667 34.9247 21.5531C35.1074 20.6395 34.9247 21.279 34.742 21.279H29.4432V17.7161C29.4432 17.442 29.5346 17.0766 29.5346 16.8025C29.5743 16.4284 29.7411 16.0792 30.0071 15.8132C30.2731 15.5472 30.6222 15.3805 30.9963 15.3408L32.184 15.158H34.9247C35.1074 15.158 35.1074 15.158 35.1074 14.9753V10.3161C35.1074 10.2247 35.1074 10.1334 34.9247 10.1334H30.7222C29.6808 10.1048 28.6476 10.324 27.7074 10.7729C27.0121 11.0069 26.3707 11.3782 25.8215 11.8646C25.2722 12.3511 24.8262 12.9429 24.5099 13.605C23.9888 14.6206 23.7372 15.7531 23.7791 16.8938C23.6877 18.2642 23.7791 19.7259 23.7791 21.1876H19.1198C18.9371 21.1876 18.9371 21.279 18.9371 21.3704V26.5778C18.9371 26.7605 18.9371 26.7605 19.1198 26.7605H23.7791V40.8296C23.7262 40.8764 23.6935 40.9419 23.6877 41.0123H5.96431C5.53532 40.9902 5.12973 40.8099 4.82599 40.5062C4.52224 40.2024 4.34192 39.7968 4.31987 39.3678C4.22852 39.3678 4.22852 39.2765 4.22852 39.1851V6.3877C4.22852 6.29634 4.22852 6.20499 4.31987 6.20499C4.34192 5.77599 4.52224 5.37041 4.82599 5.06666C5.12973 4.76292 5.53532 4.58259 5.96431 4.56055H39.0358C39.4648 4.58259 39.8704 4.76292 40.1741 5.06666C40.4779 5.37041 40.6582 5.77599 40.6802 6.20499L40.7716 6.3877Z" fill="white"/>
</g>
<defs>
<clipPath id="clip0_35_1983">
<rect width="43.8517" height="43.8517" fill="white" transform="translate(0.574219 0.814941)"/>
</clipPath>
</defs>
</svg>
