<svg width="27" height="23" viewBox="0 0 27 23" fill="none" xmlns="http://www.w3.org/2000/svg">
<path d="M2.31746 5.04644C2.60957 4.34123 3.03772 3.70046 3.57747 3.16072C4.11721 2.62097 4.75798 2.19282 5.46319 1.90071C6.1684 1.6086 6.92424 1.45825 7.68755 1.45825C8.45086 1.45825 9.2067 1.6086 9.91191 1.90071C10.6171 2.19282 11.2579 2.62097 11.7976 3.16072L13.5001 4.86314L15.2025 3.16072C16.2925 2.07066 17.771 1.45827 19.3125 1.45827C20.8541 1.45827 22.3326 2.07066 23.4226 3.16072C24.5127 4.25078 25.1251 5.72922 25.1251 7.2708C25.1251 8.81238 24.5127 10.2908 23.4226 11.3809L13.5001 21.3035L3.57747 11.3809C3.03772 10.8411 2.60957 10.2004 2.31746 9.49517C2.02535 8.78996 1.875 8.03412 1.875 7.2708C1.875 6.50749 2.02535 5.75165 2.31746 5.04644Z" stroke="#7C6A0A" stroke-width="2.58333" stroke-linecap="round" stroke-linejoin="round"/>
</svg>
