<svg width="44" height="45" viewBox="0 0 44 45" fill="none" xmlns="http://www.w3.org/2000/svg">
<path d="M35.3623 11.7725V11.7739C35.3623 13.136 34.2578 14.2392 32.897 14.2392C31.5362 14.2392 30.4317 13.1347 30.4317 11.7739C30.4317 10.4117 31.5362 9.3086 32.897 9.3086C34.2578 9.30997 35.3609 10.4117 35.3623 11.7725ZM21.9259 29.5914C18.1423 29.5914 15.0754 26.5245 15.0754 22.7409C15.0754 18.9573 18.1423 15.8905 21.9259 15.8905C25.7094 15.8905 28.7763 18.9573 28.7763 22.7409C28.7763 26.5231 25.7108 29.59 21.9286 29.59H21.9272L21.9259 29.5914ZM21.9259 12.1891C16.0977 12.1891 11.374 16.9141 11.374 22.7409C11.374 28.5677 16.0991 33.2927 21.9259 33.2927C27.754 33.2927 32.4777 28.5677 32.4777 22.7409V22.7395C32.4777 16.9128 27.754 12.1877 21.9259 12.1877H21.9245L21.9259 12.1891ZM21.9259 5.89091C27.4114 5.89091 28.0651 5.91831 30.2316 6.01287C31.6061 6.02931 32.9134 6.28968 34.1235 6.75012L34.0454 6.72409C35.846 7.42571 37.2438 8.82349 37.9304 10.5776L37.9468 10.6241C38.3798 11.7561 38.6375 13.0648 38.6539 14.431V14.4379C38.7512 16.6058 38.7731 17.2567 38.7731 22.7437C38.7731 28.2306 38.7471 28.8829 38.6471 31.0494C38.621 32.4253 38.3593 33.7326 37.9002 34.9427L37.9262 34.8632C37.5727 35.7895 37.0492 36.5789 36.3873 37.2284L36.386 37.2298C35.7378 37.8931 34.9484 38.4165 34.0673 38.7495L34.0234 38.7646C32.8874 39.1976 31.5746 39.4553 30.2029 39.4717H30.196C28.0144 39.569 27.3717 39.5909 21.8752 39.5909C16.3759 39.5909 15.7345 39.5649 13.5543 39.4649C12.173 39.4388 10.8602 39.1771 9.64464 38.718L9.72549 38.744C8.79913 38.396 8.00979 37.8711 7.36572 37.2065L7.36435 37.2051C6.69424 36.5611 6.16802 35.7704 5.83777 34.8851L5.82406 34.8426C5.3924 33.708 5.13066 32.3965 5.10462 31.0261V31.0152C5.02788 28.8569 5.00047 28.1909 5.00047 22.7204C5.00047 17.2471 5.02788 16.5798 5.10462 14.3954C5.13066 13.0154 5.39103 11.704 5.8501 10.4899L5.82406 10.5707C6.16254 9.64022 6.69013 8.84815 7.36298 8.20819L7.36572 8.20545C8.00705 7.53123 8.79775 7.00638 9.68438 6.68161L9.72686 6.6679C10.8547 6.23213 12.1579 5.97039 13.52 5.94709H13.5296C15.7126 5.87035 16.3553 5.84431 21.8505 5.84431L21.9259 5.89091ZM21.9259 2.19092C16.343 2.19092 15.6468 2.21695 13.4543 2.31425C11.6522 2.35262 9.94338 2.70069 8.36198 3.30503L8.46613 3.27077C7.04095 3.8148 5.8268 4.62195 4.82644 5.63876L4.82506 5.64013C3.80414 6.64049 2.99837 7.85601 2.47763 9.21267L2.45433 9.28119C1.88426 10.7584 1.53619 12.4687 1.49919 14.2529V14.2693C1.39641 16.4619 1.37585 17.1581 1.37585 22.7409C1.37585 28.3238 1.40189 29.0199 1.49919 31.2125C1.53756 33.0145 1.88563 34.7234 2.48996 36.3048L2.4557 36.2006C3.54651 38.9702 5.69662 41.1203 8.39487 42.1864L8.46613 42.2111C9.94338 42.7798 11.6536 43.1278 13.4378 43.1662H13.4543C15.6468 43.269 16.343 43.2896 21.9259 43.2896C27.5087 43.2896 28.2049 43.2635 30.3975 43.1662C32.1995 43.1265 33.9083 42.7798 35.4897 42.1754L35.3856 42.2111C38.1551 41.1203 40.3052 38.9702 41.3713 36.2719L41.396 36.2006C41.9661 34.7234 42.3128 33.0132 42.3512 31.229V31.2125C42.4539 29.0199 42.4745 28.3238 42.4745 22.7409C42.4745 17.1581 42.4485 16.4619 42.3512 14.2693C42.3114 12.4673 41.9647 10.7584 41.3604 9.17704L41.396 9.28119C40.8506 7.85601 40.0448 6.64187 39.0266 5.6415L39.0253 5.64013C38.0249 4.61921 36.8094 3.81343 35.4527 3.29269L35.3842 3.2694C33.907 2.69932 32.1967 2.35125 30.4125 2.31425H30.3961C28.2035 2.21147 27.5074 2.19092 21.9245 2.19092H21.9259Z" fill="white"/>
</svg>
