<svg width="44" height="45" viewBox="0 0 44 45" fill="none" xmlns="http://www.w3.org/2000/svg">
<g clip-path="url(#clip0_35_1990)">
<path d="M43.9999 9.12674C42.3922 9.84505 40.6477 10.3239 38.8348 10.5463C40.699 9.43458 42.1186 7.67299 42.7856 5.56934C41.0411 6.59551 39.1256 7.34804 37.0732 7.75851C35.4314 6.01402 33.0883 4.91943 30.5057 4.91943C25.5459 4.91943 21.5096 8.95571 21.5096 13.9155C21.5096 14.6167 21.5781 15.3009 21.7491 15.9679C14.2751 15.5916 7.63924 12.0171 3.2096 6.56131C2.43997 7.89533 1.9953 9.43459 1.9953 11.0936C1.9953 14.2063 3.58587 16.9598 5.99737 18.5846C4.52652 18.5333 3.14119 18.1228 1.92689 17.4558V17.5584C1.92689 21.9197 5.02251 25.5626 9.14429 26.3835C8.39177 26.5887 7.58793 26.7085 6.76699 26.7085C6.1855 26.7085 5.62111 26.6572 5.07381 26.5545C6.2197 30.129 9.53766 32.7287 13.4713 32.7971C10.3928 35.2086 6.51045 36.6452 2.30315 36.6452C1.58483 36.6452 0.866513 36.611 0.148193 36.5255C4.13316 39.0738 8.85354 40.5618 13.9331 40.5618C30.4886 40.5618 39.5361 26.8453 39.5361 14.9588C39.5361 14.5654 39.536 14.1721 39.5189 13.7958C41.2805 12.5131 42.8027 10.9396 43.9999 9.12674Z" fill="white"/>
</g>
<defs>
<clipPath id="clip0_35_1990">
<rect width="43.8517" height="43.8517" fill="white" transform="translate(0.148193 0.814941)"/>
</clipPath>
</defs>
</svg>
