<svg width="27" height="23" viewBox="0 0 27 23" fill="none" xmlns="http://www.w3.org/2000/svg">
<path d="M2.31746 5.04656C2.60957 4.34135 3.03772 3.70058 3.57747 3.16084C4.11721 2.62109 4.75798 2.19294 5.46319 1.90083C6.1684 1.60872 6.92424 1.45837 7.68755 1.45837C8.45086 1.45837 9.2067 1.60872 9.91191 1.90083C10.6171 2.19294 11.2579 2.62109 11.7976 3.16084L13.5001 4.86326L15.2025 3.16084C16.2925 2.07078 17.771 1.45839 19.3125 1.45839C20.8541 1.45839 22.3326 2.07078 23.4226 3.16084C24.5127 4.2509 25.1251 5.72934 25.1251 7.27092C25.1251 8.8125 24.5127 10.2909 23.4226 11.381L13.5001 21.3036L3.57747 11.381C3.03772 10.8413 2.60957 10.2005 2.31746 9.49529C2.02535 8.79008 1.875 8.03424 1.875 7.27092C1.875 6.50761 2.02535 5.75177 2.31746 5.04656Z" stroke="white" stroke-width="2.58333" stroke-linecap="round" stroke-linejoin="round"/>
</svg>
